<svg width="20" height="20" viewBox="0 0 20 20" fill="none" xmlns="http://www.w3.org/2000/svg">
<path d="M0 15.9943L1.66824 14.3355L3.0066 15.655L4.00565 14.6654L2.66729 13.3365L4.00565 11.9981L6.33365 14.3355L7.3327 13.3365L5.00471 10.9991L6.33365 9.67012L7.67201 10.9991L8.67106 10L7.3327 8.67106L8.67106 7.3327L10.9991 9.67012L11.9981 8.67106L9.67012 6.33365L10.9991 5.00471L12.328 6.33365L13.3365 5.33459L11.9981 4.00565L13.3365 2.66729L15.655 5.00471L16.6635 4.00565L14.3355 1.66824L15.9943 0L20 4.00565L4.00565 20L0 15.9943Z" fill="#DDDDDD"/>
</svg>
