<svg width="20" height="20" viewBox="0 0 20 20" fill="none" xmlns="http://www.w3.org/2000/svg">
<path d="M10 0C11.0609 0 12.0783 0.468252 12.8284 1.30175C13.5786 2.13524 14 3.2657 14 4.44444C14 5.25556 13.81 6.01111 13.46 6.66667H16C16.95 6.66667 17.75 7.41111 17.95 8.4C19.96 17.3 20 17.5333 20 17.7778C20 18.3671 19.7893 18.9324 19.4142 19.3491C19.0391 19.7659 18.5304 20 18 20H2C1.46957 20 0.960859 19.7659 0.585786 19.3491C0.210714 18.9324 0 18.3671 0 17.7778C0 17.5333 0.0400002 17.3 2.05 8.4C2.25 7.41111 3.05 6.66667 4 6.66667H6.54C6.19 6.01111 6 5.25556 6 4.44444C6 3.2657 6.42143 2.13524 7.17157 1.30175C7.92172 0.468252 8.93913 0 10 0ZM10 2.22222C9.46957 2.22222 8.96086 2.45635 8.58579 2.8731C8.21071 3.28984 8 3.85507 8 4.44444C8 5.03381 8.21071 5.59905 8.58579 6.01579C8.96086 6.43254 9.46957 6.66667 10 6.66667C10.5304 6.66667 11.0391 6.43254 11.4142 6.01579C11.7893 5.59905 12 5.03381 12 4.44444C12 3.85507 11.7893 3.28984 11.4142 2.8731C11.0391 2.45635 10.5304 2.22222 10 2.22222ZM4 8.88889V17.7778H6V15L7 16.1111V17.7778H9V15.5556L7 13.3333L9 11.1111V8.88889H7V10.5556L6 11.6667V8.88889H4ZM13 8.88889C11.89 8.88889 11 9.87778 11 11.1111V15.5556C11 16.7889 11.89 17.7778 13 17.7778H16V12.2222H14V15.5556H13V11.1111H16V8.88889H13Z" fill="#DDDDDD"/>
</svg>
