<svg width="20" height="20" viewBox="0 0 20 20" fill="none" xmlns="http://www.w3.org/2000/svg">
<path d="M15.5556 0.999905H20V2.99972H15.5556V0.999905ZM15.5556 4.99953H20V6.99934H15.5556V4.99953ZM15.5556 8.99915H20V10.999H16.3889L15.5556 10.099V8.99915ZM20 12.9988V14.9986H17.7778C17.7778 14.3086 17.6667 13.6287 17.4556 12.9988H20ZM4.44444 0.999905V2.99972H0V0.999905H4.44444ZM4.44444 4.99953V6.99934H0V4.99953H4.44444ZM4.44444 8.99915V10.099L3.61111 10.999H0V8.99915H4.44444ZM0 12.9988H2.54444C2.33333 13.6287 2.22222 14.3086 2.22222 14.9986H0V12.9988ZM13.3333 10.999V2.99972C13.3333 1.33987 11.8444 0 10 0C8.15556 0 6.66667 1.33987 6.66667 2.99972V10.999C4.21111 12.6588 3.71111 15.7885 5.55556 17.9983C7.4 20.2081 10.8778 20.658 13.3333 18.9982C15.7889 17.3384 16.2889 14.2087 14.4444 11.9989C14.1333 11.6189 13.7556 11.2789 13.3333 10.999ZM10 1.99981C10.6111 1.99981 11.1111 2.44977 11.1111 2.99972V5.99943H8.88889V2.99972C8.88889 2.44977 9.38889 1.99981 10 1.99981Z" fill="#DDDDDD"/>
</svg>
